<?xml version="1.0" encoding="UTF-8"?>
<svg id="Gerbils" xmlns="http://www.w3.org/2000/svg" viewBox="0 0 1126.96 1481.14">
  <defs>
    <style>
      .cls-1 {
        fill: #aaa196;
      }

      .cls-2 {
        stroke: #231f20;
        stroke-miterlimit: 10;
        stroke-width: 12px;
      }

      .cls-2, .cls-3 {
        fill: #231f20;
      }

      .cls-4 {
        fill: #fff;
      }

      .cls-5 {
        fill: #cdbdac;
      }

      .cls-6 {
        fill: #454442;
      }

      .cls-7 {
        fill: #1d1a1a;
      }

      .cls-8 {
        fill: #aac3d5;
      }

      .cls-9 {
        fill: #cedbe6;
      }

      .cls-10 {
        fill: #875021;
      }

      .cls-11 {
        fill: #595756;
      }

      .cls-12 {
        fill: #95a8b8;
      }

      .cls-13 {
        fill: #e8e8e8;
      }
    </style>
  </defs>
  <path class="cls-2" d="m1095.01,655.12c1.29-13.17-3-22.56-3.18-22.95l-1.09-2.33-2.53-.47c-.63-.12-63.42-12.3-102.06-62.1-20.13-25.95-29.35-58.59-38.26-90.15-8.21-29.08-15.98-56.56-31.86-73.79-11.43-44.46-26.82-87.35-47.82-124.84,50.14-7.85,69.08-35.56,76.12-53.18,13.01-32.58,2.34-66.86-14.3-82.57-14.48-13.67-38.54-16.3-64.35-7.04-18.65,6.69-36.44,19-50.09,34.67-6.62,7.6-12.17,15.87-16.59,24.62-6.35-4.96-12.98-9.58-19.9-13.82-40.05-24.56-84.36-39.26-131.7-43.68-6.41-.6-12.89-.99-19.42-1.22,5.88-14.63,9.46-32.76,6.13-49.69-3.39-17.25-15.31-39.63-52.79-48.21-1.67-.39-3.43.12-4.64,1.33-1.22,1.21-1.73,2.96-1.35,4.64,2.48,11.03,1.48,19.66-2.96,25.64-4.17,5.6-10.61,7.8-14.33,8.64-3.41-5.28-11.45-14.84-25.21-15.11-.82-.02-1.64.17-2.38.55-16.4,8.39-34.32,26.9-37.38,49.34-1.38,10.11-.13,24.55,12.07,39-54.09,15.51-103.13,40.19-139.22,63.55-3.81-10.29-9.1-20.11-15.82-29.2-12.25-16.57-28.87-30.16-46.78-38.25-24.79-11.2-48.79-10.5-64.2,1.87-17.71,14.21-30.98,47.26-20.69,80.52,5.81,18.77,23.55,49.43,77.66,60.06-14.7,31.4-22.54,67.51-26.71,97.67-3.52,25.43-5.22,52.41-5.17,79.75-16.1,103.4-79.35,160.86-121.22,198.9-15.95,14.49-28.55,25.94-35.5,36.77l-.56.88-.16,1.03c-4.75,29.9,17.51,48.78,26.81,55.25-3.55,8.76-10.09,29.86-1.68,51.23,3.83,9.73,10.25,18.19,19.15,25.34-14.36,15.78-23.89,30.11-30.29,42.61-4.49-6.37-10.3-12.33-17.7-17.77-5.55-4.08-12.39-4.15-18.75-.21-11.01,6.83-19.41,24.84-17.27,37.05,1.12,6.44,5.44,10.16,9.24,13.44,7.42,6.41,15.84,13.68,7.91,46.76-2.23,9.31-5.1,20.53-8.41,33.51-15.14,59.27-38.02,148.83-39.11,210.17-1.15,64.87,16.42,161.31,16.59,162.28.15.79.48,1.54.98,2.18,3.24,4.14,10.76,9.5,21.35,9.5,5.32,0,11.43-1.35,18.15-4.9,1.9-1,2.95-3.1,2.61-5.22-1.21-7.52-2.69-15.74-4.26-24.44-7.06-39.19-15.84-87.96-12.87-139.12,2.56-44.03,20.31-113.34,34.58-169.03,6.03-23.53,11.24-43.85,14.26-58.32,1.93-9.25,3.7-18.57,4.85-27.78.99.35,2,.7,3.05,1.05,8.71,2.92,35.75,10.97,68.75,10.97,7.41,0,15.11-.41,22.98-1.37,13.84-1.69,26.47-4.96,37.78-9.72-.58,2.39-1.2,4.66-1.88,6.79-4.22,13.4-10.1,26.91-16.33,41.21-16.4,37.69-35,80.41-32.45,141.07,1.7,40.42,19.81,86.42,49.69,126.22,11.13,14.82,23.24,27.89,35.85,38.87-9.01,7.85-19.69,16.17-33.63,24.88-5.98,3.73-11.44,7.09-16.41,10.15-38.68,23.8-50.35,30.99-50.34,57.15.01,30.41,55.5,56.22,85.54,58.65,1.54.12,3.13.19,4.78.19,31.47,0,83.11-22.19,125.65-54.4,8.78-6.65,16.39-11.71,23.11-16.17,14.1-9.37,24.28-16.13,29.22-27.94,1.93-4.62,3.04-9.91,3.31-16.45,17.85-2.09,36.06-4.72,54.08-7.33,38.24-5.54,77.77-11.26,111.13-11.26,36.23,0,81.8,7.51,125.88,14.76,8.45,1.39,16.82,2.77,25.05,4.08.37,6.78,1.39,13.54,3.29,20.07,10.61,36.41,54.34,60.47,129.99,71.51,7.51,1.1,15.12,2.3,22.49,3.46,24.55,3.87,48.36,7.62,68.42,7.62,16.44,0,30.38-2.52,40.15-9.55,14.2-10.22,27.6-29.51,25.51-49.55-1.19-11.37-7.98-27.3-33.59-38.62-26.4-11.67-48.53-24.06-69.35-39.3,24.23-22.77,44.39-57.25,53.56-111.41,8.61-50.81,8.94-96.51.98-135.83-6.27-30.97-17.68-58.07-33.92-80.71,24.76-27.94,42.18-82.35,39.61-99-1.92-12.39-11.4-35.06-25.23-57.46,2.04-2.55,3.92-5.07,5.62-7.48,25.37,10.54,50.32,1.48,51.42,1.07l1.32-.49.87-1.11c.42-.54,10.37-13.44,15.03-34.65,4.12-18.74,4.7-47.67-14.98-80.73,19.48-15.11,24.98-31.36,26.09-42.61Z"/>
  <g id="Gergibsen_1c" data-name="Gergibsen 1c">
    <g>
      <path class="cls-12" d="m792.58,232.7c9.84-77.81,102.41-115.83,133.71-88.1,33.38,29.56,33.09,131.48-88.1,131.03"/>
      <path class="cls-8" d="m864.92,144.15c-27.06,16.21-6.82,60.04,12.41,53.78,7.6-11.29,12.97-24.78,13.49-31.04-1.64,26.35,12.52,23.93,12.52,23.93,0,0-22.77,21.09,8.31,65.25,23.7-16.32,33.19-32.76,33.59-75.91.4-43.16-54.94-55.45-79.65-36"/>
      <g>
        <path class="cls-3" d="m839.02,280.63c-.28,0-.56,0-.84,0l.04-10c49.75.17,84.13-17.23,96.83-49.02,10.96-27.45,2.57-57.95-11.88-71.58-11.69-11.03-31.92-12.87-54.11-4.91-31.47,11.29-65.79,42.94-71.51,88.21l-9.92-1.25c2.86-22.65,12.53-43.98,27.96-61.69,13.65-15.67,31.44-27.98,50.09-34.67,25.81-9.26,49.86-6.62,64.35,7.04,16.65,15.71,27.32,49.98,14.3,82.57-8.26,20.69-32.94,55.31-105.31,55.31Z"/>
        <path class="cls-3" d="m815.68,266.77c-2.39,0-4.5-1.71-4.92-4.15-.47-2.72,1.35-5.31,4.07-5.78,8.17-1.42,66.41-44.12,67.56-92.24.07-2.76,2.37-4.93,5.12-4.88,2.76.07,4.95,2.36,4.88,5.12-.68,28.51-18.55,53.72-33.43,69.85-16.19,17.55-35,30.72-42.42,32-.29.05-.58.07-.86.07Z"/>
        <path class="cls-3" d="m871,216.35c-1.77,0-3.49-.94-4.39-2.61-1.32-2.42-.43-5.46,2-6.78,12.96-7.06,22.44-9.29,28.89-9.65,5.51-.3,9.22,5.7,6.29,10.38-.05.09-.09.13-.1.13-.09-.04-9.01-3.69-30.29,7.92-.76.42-1.58.61-2.39.61Z"/>
      </g>
    </g>
    <g>
      <path class="cls-8" d="m367.86,250.19c-3.56-77.69-92.04-122.59-125.18-97.67-35.33,26.58-43.13,127.33,76.69,136.49"/>
      <path class="cls-12" d="m221.8,220.01c15.5,28.19,65.74,44.72,82.58,20.95,32.35-.66,37.35-55.52,37.35-55.52,0,0,27.79,33.84,26.9,63.95-.89,30.11-19.42,43.45-53.61,39.61-34.19-3.84-80.22-21.37-88.36-50.62-8.14-29.24-4.86-18.38-4.86-18.38Z"/>
      <g>
        <path class="cls-3" d="m319,293.99c-72.23-5.52-94.01-41.91-100.57-63.11-10.29-33.25,2.98-66.31,20.69-80.52,15.41-12.37,39.41-13.07,64.2-1.87,17.91,8.09,34.52,21.68,46.78,38.25,13.85,18.74,21.72,40.6,22.76,63.21l-9.99.46c-2.07-45.18-33.47-79.17-63.66-92.81-21.29-9.62-41.41-9.41-53.83.55-15.35,12.32-26.06,41.78-17.4,69.77,10.03,32.41,42.62,52.33,91.78,56.09l-.76,9.97Z"/>
        <path class="cls-3" d="m350.45,284.25c-.29,0-.58-.03-.87-.08-7.36-1.29-25.99-14.4-42-31.85-14.71-16.04-32.38-41.09-32.98-69.37-.06-2.76,2.13-5.05,4.89-5.11,2.78-.09,5.05,2.13,5.1,4.89,1.01,47.7,58.62,90.17,66.71,91.59,2.72.48,4.54,3.07,4.06,5.79-.43,2.43-2.54,4.13-4.92,4.13Z"/>
        <path class="cls-3" d="m300.98,241.59c-1.16,0-2.33-.4-3.28-1.22-23.79-20.66-33.39-14.5-33.48-14.43-.01,0-.05-.04-.12-.11-3.84-4.11-.8-10.92,4.83-10.82,7.57.13,19.16,3.78,35.33,17.82,2.09,1.81,2.31,4.97.5,7.05-.99,1.14-2.38,1.72-3.78,1.72Z"/>
      </g>
    </g>
    <g>
      <path id="Face" class="cls-8" d="m630.14,814.29c214.77-38.91,330.82,27.5,320.08-82.51-10.73-110.01-4.7-442.67-173.74-546.34-169.04-103.67-365.59-.67-436.7,55.16-71.11,55.83-83.88,224.73-58.71,347.89,25.17,123.16,32.76,214.39,150.72,220.43,117.96,6.04,198.34,5.37,198.34,5.37Z"/>
      <path class="cls-3" d="m623.02,819.31c-22.27,0-94.59-.43-191.47-5.39-51.81-2.65-86.48-21.55-109.11-59.49-20.45-34.29-29.69-81.19-40.38-135.5-1.88-9.54-3.82-19.41-5.87-29.44-13.11-64.14-15.59-137.36-6.8-200.88,7.02-50.71,24.39-118.23,67.33-151.94,38.36-30.12,106.71-69.13,183.5-88.31,43.99-10.99,86.79-14.65,127.2-10.86,47.34,4.43,91.65,19.12,131.7,43.68,148.01,90.78,163.71,352.72,172.14,493.45,1.34,22.34,2.49,41.63,3.96,56.67,2.42,24.86-1.32,41.79-11.79,53.29-18.97,20.83-57.07,20.71-114.76,20.51-52.35-.17-117.51-.4-197.63,14.12l-.42.08h-.43c-.14,0-2.6.02-7.17.02Zm-6.84-672.97c-113.09,0-219.43,55.9-273.3,98.19-31.45,24.69-54.04,76.35-63.59,145.45-8.64,62.44-6.2,134.43,6.69,197.51,2.06,10.07,4,19.95,5.89,29.51,10.51,53.39,19.59,99.5,39.16,132.3,21.04,35.28,52.2,52.12,101.03,54.62,112.08,5.74,191.15,5.4,197.62,5.36,80.82-14.6,146.34-14.37,199.02-14.2,55,.18,91.35.31,107.33-17.24,8.43-9.26,11.36-23.74,9.23-45.58-1.49-15.22-2.65-34.6-3.99-57.04-8.32-138.91-23.81-397.47-167.39-485.52-50.94-31.24-105.06-43.36-157.7-43.36Z"/>
    </g>
    <g id="Foot_2" data-name="Foot 2">
      <path class="cls-5" d="m917.57,1261.31c40.83,42.73,75.62,66.55,124.39,88.1s30.63,62.67,7.18,79.54c-23.44,16.87-75.62,5.15-127.42-2.41-51.8-7.56-113.43-25.15-125.91-67.97-12.48-42.82,15.12-97.26,15.12-97.26h106.62Z"/>
      <path class="cls-1" d="m977.42,1317.15c-33.39,32.5-41.16,23.43-67.08,41.78-13.42,9.5-24.75,38.42,64.1,53.62,88.84,15.2,34.59,30.09-17.89,19.37-52.47-10.72-105.44-13.3-136.5-40.18-31.06-26.89-30.43-51.33-26.27-74.59,4.16-23.25,161.57-22.66,161.57-22.66l22.06,22.66Z"/>
      <path class="cls-3" d="m1011.92,1442.56c-20.07,0-43.87-3.75-68.42-7.62-7.37-1.16-14.98-2.36-22.49-3.46-75.64-11.04-119.38-35.1-129.99-71.51-12.88-44.21,14.3-98.63,15.46-100.92l1.39-2.74h111.83l1.48,1.54c38.95,40.76,73.38,65.14,122.8,86.98,25.61,11.32,32.41,27.25,33.59,38.62,2.09,20.04-11.3,39.33-25.51,49.55-9.77,7.04-23.71,9.55-40.15,9.55Zm-197.81-176.25c-5.19,11.36-23.72,55.76-13.49,90.87,11.73,40.25,72.73,57.25,121.83,64.42,7.57,1.1,15.21,2.31,22.6,3.47,42.59,6.71,82.81,13.04,101.17-.17,11.48-8.26,23.07-24.43,21.4-40.4-1.31-12.53-10.88-23.08-27.69-30.51-50.1-22.14-85.17-46.81-124.51-87.67h-101.33Z"/>
    </g>
    <g id="Foot_1" data-name="Foot 1">
      <path class="cls-5" d="m370.24,1257.65c-41.14,14.76-48.54,42.42-100.86,75.06-52.32,32.65-64.41,36.67-64.4,63.06.01,26.85,53.22,51.43,80.94,53.66,27.73,2.24,80.94-18.34,127.01-53.22,46.06-34.88,62.16-27.73,49.64-93.91-12.52-66.19-92.33-44.65-92.33-44.65Z"/>
      <path class="cls-1" d="m279.78,1331.16c4.17,35.48,80.8,31.3,85.27,40.84,4.47,9.54,7.16,26.83-24.15,49.49-31.3,22.66-73.1,24.34-73.1,24.34,0,0,41.41,13.66,106.45-24.42,65.04-38.08,80.54-56.75,86.21-61.43,5.66-4.68,10.73-50,1.19-60.13s-143.7-6.86-143.7-6.86l-38.16,38.16Z"/>
      <path class="cls-3" d="m290.31,1454.6c-1.65,0-3.25-.06-4.78-.19-30.04-2.42-85.53-28.24-85.54-58.65-.01-26.16,11.66-33.34,50.34-57.15,4.97-3.06,10.43-6.42,16.41-10.15,23.45-14.63,37.69-28.22,50.25-40.21,15.14-14.45,28.21-26.93,51.57-35.31l.39-.12c1.73-.47,42.73-11.23,72.06,7.17,14.04,8.81,22.95,22.73,26.48,41.38,5.31,28.05,5.53,43.4.79,54.72-4.93,11.8-15.12,18.57-29.22,27.94-6.72,4.46-14.33,9.52-23.11,16.17-42.53,32.21-94.17,54.4-125.65,54.4Zm81.41-192.17c-21.23,7.66-32.97,18.87-47.83,33.05-12.91,12.32-27.54,26.29-51.86,41.47-6,3.75-11.48,7.12-16.46,10.18-39.1,24.07-45.59,28.63-45.58,48.63,0,9.95,10.06,21.52,27.6,31.75,15.48,9.03,35.07,15.83,48.75,16.94,23.94,1.92,75.38-15.72,123.59-52.22,9.03-6.83,16.78-11.98,23.61-16.53,27.16-18.05,33.62-22.34,24.13-72.47-2.99-15.79-10.37-27.48-21.93-34.75-24.7-15.52-61.15-6.77-64.01-6.05Z"/>
    </g>
    <g id="Arm_2" data-name="Arm 2">
      <path class="cls-5" d="m975.04,784.77c30.19,29.52,52.08,76.47,54.89,94.58,2.8,18.11-23.36,93.91-54.89,108-31.53,14.09-111.35-179.78-111.35-179.78"/>
      <path class="cls-1" d="m1009.62,835.96c9.85,21.74-32.8,42.93-34.88,48.89s29.26,72.12,29.26,72.12c0,0-17.93,26.57-23.59,27.76-5.66,1.19-64.7-96.3-64.7-96.3l-5.37-67.68,71.85-15.8s17.29,8.65,27.43,31.01Z"/>
      <path class="cls-3" d="m971.56,993.1c-2.04,0-4.16-.44-6.35-1.32-16.01-6.39-38.1-38.28-67.52-97.47-21.27-42.79-38.45-84.41-38.62-84.82l9.25-3.81c.17.41,17.23,41.74,38.35,84.22,36.55,73.53,54.7,89.57,62.25,92.59,2.51,1,3.7.47,4.08.3,28.23-12.61,54.64-85.52,51.98-102.67-2.52-16.25-23.09-62.09-53.44-91.77l6.99-7.15c29.68,29.02,53.18,77.06,56.33,97.39,3.17,20.49-23.96,98.21-57.79,113.33-1.75.78-3.6,1.17-5.52,1.17Z"/>
    </g>
    <g id="Arm_1" data-name="Arm 1">
      <path class="cls-5" d="m194.89,804.23c-79.16,62.39-81.17,109.34-83.18,124.77-2.01,15.43,148.92,62.39,198.56-24.82,49.64-87.2,11.66-81.17,11.66-81.17"/>
      <path class="cls-1" d="m152.04,845.68c22.64,29.49,48.75,29.04,48.75,29.04,0,0-3.39,66.19,20.36,76.02,23.75,9.84,65.79-16.99,65.79-16.99v-122.94l-77.81-39.84-57.08,74.71Z"/>
      <path class="cls-3" d="m204.72,960.52c-33,0-60.04-8.05-68.75-10.97-20.33-6.82-30.16-13.95-29.21-21.2.09-.71.19-1.5.29-2.35,2.11-17.78,7.73-64.99,84.76-125.7l6.19,7.85c-73.78,58.15-79.04,102.38-81.02,119.03-.07.6-.14,1.17-.2,1.7,1.56,2.04,9.27,7.18,26.04,12.37,17.76,5.5,38.2,8.76,57.54,9.2,35.05.81,81.82-7.02,105.58-48.74,29.35-51.56,25.96-66.88,23.14-71.07-2.15-3.19-6.23-2.7-6.41-2.67l-1.51-9.88c3.81-.61,11.48.14,16.09,6.79,8.84,12.77,1.44,39.52-22.62,81.79-16.77,29.45-46.82,47.61-86.92,52.5-7.87.96-15.57,1.37-22.98,1.37Z"/>
    </g>
    <g id="Mouth">
      <g>
        <path class="cls-4" d="m624.66,613.72c.22,18.11,8.72,36.67,20.12,38.24,11.4,1.57,20.12-11.4,14.09-32.87-6.04-21.47-34.21-5.37-34.21-5.37Z"/>
        <path class="cls-3" d="m646.58,657.08c-.82,0-1.65-.06-2.48-.17-14.99-2.06-24.2-23.54-24.44-43.13l-.04-2.94,2.56-1.46c1.81-1.04,18.08-9.98,30.45-4.92,3.77,1.55,8.75,5.1,11.05,13.27,3.89,13.83,2.48,25.94-3.88,33.24-3.44,3.96-8.17,6.11-13.23,6.11Zm-16.8-40.36c1.03,15.21,8.12,29.24,15.68,30.28,2.69.37,4.98-.51,6.8-2.6,4.04-4.64,4.71-13.59,1.79-23.96-1.31-4.65-3.6-6.06-5.21-6.72-5.48-2.24-14.16.75-19.06,3Z"/>
      </g>
      <g>
        <path class="cls-4" d="m598.37,612.54c-6.11,21.52,1.21,33.19,8.51,37.68,6.43,3.95,19.97,6.95,22.5-13.69,2.53-20.64-2.08-29.6-2.08-29.6l-28.93,5.61Z"/>
        <path class="cls-3" d="m616.24,658.08c-5.54,0-10.28-2.56-11.98-3.61-4.59-2.82-18.94-14.29-10.71-43.31l.84-2.96,35.63-6.92,1.72,3.33c.54,1.06,5.24,10.95,2.6,32.5-1.21,9.91-4.92,16.42-11.01,19.36-2.39,1.15-4.81,1.59-7.09,1.59Zm-13.83-41.24c-4.7,20.02,4.15,27.31,7.09,29.11,2.57,1.58,6.59,2.92,9.49,1.53,3.52-1.7,4.89-7.23,5.43-11.57,1.43-11.64.43-19.22-.51-23.25l-21.5,4.17Z"/>
      </g>
      <g>
        <path class="cls-1" d="m610.13,559.97c29.51-2.15,47.93-10.35,75.67,9.06,27.56,19.29,9.29,37.47-.77,44.18-10.06,6.71-34.36,8.41-63.94,8.81-31.76.42-59.93,18.31-76.7.11-17.27-18.75,9.21-58.21,48.24-59.43,39.03-1.22,17.51-2.72,17.51-2.72Z"/>
        <path class="cls-5" d="m648.14,558.26c-28.4,3.35-31.16,13.79-61.27,26.31-30.11,12.52,4.94,33.02,42.12,33.99,37.18.97,57.75-.3,64.76-13.34,7.01-13.04,7.75-26.76-14.31-37.72-22.06-10.95-31.3-9.24-31.3-9.24Z"/>
        <path class="cls-3" d="m564.78,635.27c-9.05,0-17.28-2.38-24.08-9.76-7.42-8.06-8.76-19.64-3.67-31.76,7.03-16.75,27.38-35.18,55.43-36.05,8.87-.28,14.16-.56,17.3-.79v-1.92c5.93-.43,11.4-1.11,16.69-1.77,20.71-2.58,38.59-4.81,62.21,11.73,11.17,7.82,16.78,16.51,16.67,25.83-.15,13.56-12.31,23.12-17.53,26.6-9.52,6.34-28.83,9.14-66.65,9.65-10.67.14-20.92,2.35-30.84,4.48-8.88,1.91-17.53,3.77-25.53,3.77Zm55.33-71.22c-1.65,2.16-5.19,2.46-8.41,2.73-3.97.33-10.34.64-18.93.91-22.59.71-40.5,15.59-46.52,29.93-2.06,4.91-4.57,14.19,1.81,21.11,8.51,9.23,20.8,7.15,40.15,2.99,9.91-2.13,21.15-4.55,32.81-4.71,23.42-.31,51.54-1.5,61.24-7.97,6.27-4.18,13-11.21,13.08-18.39.07-5.82-4.11-11.72-12.41-17.53-20.47-14.33-35.05-12.51-55.24-10-2.48.31-4.99.62-7.58.91Z"/>
      </g>
      <g>
        <path class="cls-6" d="m614.16,528.66c-28.17-.23-35.78,9.84-33.99,16.77,2.23,8.66,13.86,22.36,31.97,21.69s26.03-8.19,29.5-17.07c3.38-8.65.02-21.17-27.48-21.39Z"/>
        <path class="cls-11" d="m620.38,532.42c-19.28,1.46-23.83,9.56-22.16,14.72,2.09,6.45,10.92,16.19,23.26,14.62,12.34-1.56,17.27-7.74,19.07-14.69,1.75-6.77-1.35-16.09-20.17-14.66Z"/>
        <path class="cls-3" d="m609.68,572.5c-19.75,0-32.84-15.01-35.54-25.46-1.05-4.08-.07-8.32,2.76-11.94,4.03-5.16,13.6-11.24,36.11-11.08h0c15.34.12,25.63,3.89,30.58,11.2,3.29,4.86,3.84,11.06,1.52,17.01-4.99,12.78-16.42,19.59-33.97,20.24-.49.02-.98.03-1.46.03Zm2.35-38.49c-20.02,0-25.91,5.53-27.25,7.24-.62.79-1.29,2-.96,3.28,1.69,6.54,11.31,18.48,26.94,17.94,17.82-.66,22.82-8.24,25.02-13.89.65-1.67,1.46-4.9-.48-7.76-1.68-2.49-6.83-6.68-22.38-6.81-.3,0-.6,0-.9,0Z"/>
        <path class="cls-3" d="m628.56,552.11c-.19,0-.38-.03-.57-.08-1.06-.32-1.66-1.43-1.35-2.49.55-1.83.46-3.36-.26-4.53-.74-1.21-2.19-2.07-4.08-2.42-1.09-.2-1.8-1.24-1.6-2.33.2-1.09,1.24-1.8,2.33-1.6,3.02.56,5.42,2.07,6.77,4.26.92,1.5,1.78,4.06.68,7.76-.26.87-1.05,1.43-1.92,1.43Z"/>
      </g>
    </g>
    <g>
      <path id="Brow_R" data-name="Brow R" class="cls-13" d="m682.67,326.64c-21.87-4.95-29.62-36.99-27.84-44,2.08-8.17,24.75-42.04,66.48-37.57,14.01,6.86,15.8,16.7,15.8,16.7,0,0,28.92-11.63,47.11-7.16,9.54,12.22,9.08,19.43,9.08,19.43,0,0,20.14.54,38.33,17.24,24.45,5.66,27.18,16.1,27.18,16.1,0,0,8.89,26.84-40.6,29.82-49.49,2.98-135.54-10.56-135.54-10.56Z"/>
      <path class="cls-3" d="m802.39,342.63c-49.61,0-117.33-10.55-120.5-11.05l-.33-.06c-9.1-2.06-17.07-8.31-23.04-18.07-6.95-11.35-10.07-26-8.53-32.05,2.58-10.1,27.09-46.08,71.86-41.3l.88.09.79.39c9.39,4.59,14.09,10.56,16.4,14.83,9.28-3.2,30.36-9.38,45.5-5.66l1.68.41,1.07,1.37c6.09,7.81,8.54,13.97,9.51,17.94,7.16,1.05,22.18,4.69,36.35,17.24,24.66,6.06,29,17.31,29.58,19.24.39,1.3,2.83,10.43-3.26,19.42-6.7,9.89-20.78,15.55-41.84,16.81-5.05.3-10.47.44-16.12.44Zm-118.78-20.91c4.32.67,86.95,13.33,134.3,10.48,22-1.32,30.66-7.42,34.06-12.29,3.74-5.38,2.15-10.79,2.08-11.02l-.02-.06c-.23-.55-3.79-8.11-23.53-12.68l-1.28-.3-.97-.89c-16.47-15.12-34.91-15.92-35.1-15.92l-5.48-.19.63-5.06c-.04-.69-.52-5.98-6.93-14.68-13.76-2.44-35.06,4.34-42.38,7.29l-5.69,2.29-1.1-6.03c-.05-.22-1.71-7.23-12.3-12.71-39.69-3.72-59.04,29.29-60.22,33.92-.64,2.52,1.14,14.18,7.37,24.35,3.14,5.13,8.56,11.62,16.57,13.5Z"/>
    </g>
    <g>
      <path id="Brow_L" data-name="Brow L" class="cls-13" d="m497.28,330.34c20.27-6.56,36.97-34.29,36.67-38.76s-13.12-50.09-59.03-50.98c-9.54,4.47-14.52,15.47-14.52,15.47,0,0-31.23-13.71-63.99,1.82-1.86,11.02.38,17.75.38,17.75,0,0-22.05-5.52-38.44,18.93-23.85,2.09-31.6,19.46-31.6,19.46,0,0,11.4,27.41,39.84,22.61,28.44-4.81,130.7-6.3,130.7-6.3Z"/>
      <path class="cls-3" d="m360.15,342.19c-21.23,0-33.99-16.55-38.02-26.24l-.83-1.99.88-1.97c.35-.79,8.72-18.94,33.37-22.15,12.12-16.72,26.71-19.68,35.26-19.75-.25-3.34-.21-7.75.68-13.04l.43-2.57,2.36-1.12c27.56-13.06,53.78-6.8,63.85-3.47,2.62-4.17,7.51-10.46,14.67-13.82l1.05-.49,1.16.02c26.06.51,41.87,14.51,50.54,26.16,9.46,12.71,13.17,26.25,13.39,29.48.53,8-18.94,36.99-40.12,43.85l-.71.23h-.75c-1.02.03-102.2,1.55-129.94,6.24-2.52.43-4.95.62-7.27.62Zm-27.76-28c3.1,5.72,13.33,20.89,33.36,17.52,27.49-4.65,120.42-6.2,130.67-6.35,16.75-5.9,31.18-28.36,32.49-33.67-.78-3.46-11.37-44.45-52.87-46.05-7.07,3.9-11.05,12.42-11.09,12.51l-2.05,4.47-4.51-1.96c-.28-.12-28.09-11.9-57.42.66-.91,7.93.56,12.73.57,12.79l2.67,8.51-8.64-2.12c-.73-.17-18.97-4.17-33.08,16.87l-1.33,1.99-2.38.21c-16.16,1.41-23.8,10.62-26.4,14.64Z"/>
    </g>
    <g id="Glasses">
      <g>
        <g>
          <path class="cls-4" d="m654.4,354.11c7.02-14.38,122.07-82.53,209.29-7.38,22.14,31.53,8.12,131.18-17.44,152.27-38.48,31.76-141.33,25.74-172.19,8.25-27.73-21.02-47.16-96.8-19.66-153.15Z"/>
          <path class="cls-3" d="m754.96,526.61c-34.14,0-67.42-5.96-83.37-15l-.56-.37c-14.95-11.33-27.38-36.8-32.45-66.47-5.68-33.28-1.67-66.26,11.32-92.86,4.59-9.4,39.59-32.13,83.02-41.06,35.65-7.33,87.84-7.71,134.03,32.08l.47.41.36.51c10.88,15.5,14.63,46.73,10.04,83.54-3.5,28.04-12.8,62.6-28.39,75.46-24.47,20.2-68.21,23.54-92.09,23.74-.79,0-1.59,0-2.37,0Zm-78.15-23.53c29.66,16.47,129.83,22.13,166.25-7.92,10.81-8.92,20.79-36.65,24.83-68.99,4.18-33.49,1.13-62.52-7.96-76.06-42.99-36.72-91.67-36.29-125-29.44-42.07,8.65-73.34,30.11-76.05,35.65h0c-26.1,53.48-7.86,126.82,17.92,146.77Z"/>
        </g>
        <g>
          <path class="cls-4" d="m550.44,351.68c-7.63-14.06-123.69-72.43-209.42,1.62-31.44,48.18-3.67,133.1,23.97,151.38,27.64,18.28,102.87,29.85,175.74-1.48,23.91-20.54,39.6-96.41,9.7-151.52Z"/>
          <path class="cls-3" d="m445.53,527.72c-37,0-67.61-8.49-83.29-18.86-15.02-9.93-29.59-37.09-36.27-67.58-7.71-35.24-3.75-68.3,10.87-90.71l.39-.59.53-.46c47.57-41.09,102.27-41.55,139.78-34.7,39.7,7.25,72.3,25.26,77.3,34.48h0c13.98,25.77,19.63,58.32,15.9,91.67-3.28,29.38-13.53,54.68-26.74,66.03l-.58.5-.7.3c-33.55,14.43-67.43,19.92-97.19,19.92Zm-100.69-171.1c-12.85,20.18-16.17,50.2-9.1,82.52,6.06,27.68,19.23,52.92,32.01,61.38,14.19,9.39,40.38,15.92,68.35,17.04,24.3.98,61.65-1.47,101.93-18.63,10.95-9.91,19.85-32.95,22.77-59.07,3.5-31.33-1.74-61.8-14.75-85.79h0c-2.56-4.73-30.72-22.18-70.3-29.41-35.22-6.43-86.45-6.08-130.91,31.97Z"/>
        </g>
        <path class="cls-3" d="m567.52,421.34l-5.75-8.19c16.22-11.38,48.03-17.68,82.54-6.09l-3.19,9.48c-31.03-10.43-59.91-4.83-73.61,4.79Z"/>
      </g>
      <g>
        <path class="cls-7" d="m482.22,401.97c-11.02-13.74-42.58-9.06-49.19,15.28-6.48,23.85,13.86,34.58,30.63,32.13,16.77-2.46,35.78-25.94,18.56-47.4Z"/>
        <path class="cls-4" d="m475.96,404.87c-11.77-9.42-25.04,2.46-21.02,15.65,4.02,13.19,21.02,14.98,24.37,7.16s3.35-17.44-3.35-22.81Z"/>
      </g>
      <g>
        <path class="cls-7" d="m738.25,392.35c-17.25-13.01-46.01,1.06-42.71,27.04,3.35,26.41,41.14,21.49,48.52,9.41,7.38-12.07,7.83-26.16-5.81-36.45Z"/>
        <path class="cls-4" d="m733.11,399.28c-10.87-9.76-23.93,5.59-22.14,15.88,1.79,10.29,17.26,13.58,22.14,10.96,7.6-4.09,10.96-16.99,0-26.83Z"/>
      </g>
    </g>
    <g>
      <path id="Bod" class="cls-8" d="m926.75,826.36c8.05,71.78,31.57,112.49,59.26,147.22,34.21,42.93,55.45,112.38,37.27,219.71-17.69,104.42-77.15,133.49-124.74,147.58-47.59,14.09-178.7-24.82-261.73-24.82s-197.94,34.21-268.94,18.78c-71.01-15.43-144.57-114.04-148.04-196.55-3.46-82.51,33.12-131.6,48.55-180.57,15.43-48.97,7.02-165.57,7.02-165.57"/>
      <path class="cls-3" d="m871.24,1348.92c-28.98,0-67.95-6.42-108.56-13.11-44.07-7.26-89.65-14.76-125.88-14.76-33.36,0-72.9,5.72-111.13,11.26-56.94,8.24-115.82,16.76-158.87,7.41-34.91-7.59-72.19-34.92-102.28-75-29.88-39.8-47.99-85.8-49.69-126.22-2.55-60.66,16.05-103.38,32.45-141.07,6.22-14.3,12.1-27.81,16.33-41.21,14.96-47.49,6.88-162.55,6.8-163.71l9.97-.72c.35,4.8,8.3,118.12-7.24,167.43-4.38,13.9-10.36,27.65-16.69,42.2-15.97,36.7-34.08,78.3-31.63,136.66,1.61,38.45,19,82.42,47.69,120.64,28.67,38.19,63.81,64.15,96.41,71.23,41.29,8.97,99.25.58,155.31-7.54,38.59-5.58,78.49-11.36,112.56-11.36,37.04,0,83.03,7.57,127.5,14.9,55.19,9.09,107.32,17.67,132.81,10.13,47.5-14.06,104.2-43.09,121.23-143.62,15.56-91.86,3.03-166.47-36.25-215.76-26.3-33.01-51.82-74-60.31-149.78l9.94-1.12c8.22,73.27,32.83,112.83,58.2,144.67,19.12,24,32.34,53.55,39.27,87.83,7.96,39.32,7.62,85.02-.98,135.83-17.96,105.98-77.97,136.65-128.25,151.54-7.74,2.29-17.47,3.26-28.71,3.26Z"/>
    </g>
    <path id="Belly" class="cls-9" d="m797.5,818.09c41.14,131.48,70.05,257.23,22.36,336.3-33.99,56.35-114.48,36.67-200.43,35.78-82.73-.86-142.13,33.99-189.09-9.84-84.71-79.07-20.11-254.91,0-343.45,10.47-46.11,117.17-16.99,117.17-16.99l249.99-1.79Z"/>
    <path class="cls-3" d="m547.52,729.62c-1.59,0-3.16-.76-4.12-2.17-1.56-2.28-.99-5.39,1.29-6.95l1.6-1.11c8.3-5.76,27.75-19.26,53.68-27.81,32.51-10.72,64.36-10.36,94.66,1.08,2.58.97,3.89,3.86,2.91,6.44-.98,2.58-3.86,3.89-6.44,2.91-43.94-16.58-90.75-7.97-139.11,25.59l-1.64,1.13c-.87.59-1.85.88-2.83.88Z"/>
    <path class="cls-3" d="m622.75,798.97c-46.94,0-90.75-21.04-100.34-34.65-1.59-2.26-1.05-5.38,1.21-6.97,2.26-1.59,5.38-1.05,6.97,1.21,7.25,10.3,56.36,36.35,110.05,29.26,49.86-6.58,83.05-53.31,89.21-65.46,1.25-2.46,4.26-3.45,6.72-2.2s3.45,4.26,2.2,6.72c-3.13,6.17-13.35,21.86-29.68,37.03-20.47,19.03-43.68,30.73-67.14,33.82-6.4.84-12.83,1.23-19.19,1.23Z"/>
    <g>
      <path class="cls-10" d="m100.09,866.64c-13.57-9.97-30.77,16.89-28.14,31.95,2.63,15.07,29.61,9.95,17.09,62.23-12.52,52.28-46.08,168.62-47.38,242.61-1.15,65.12,16.51,161.29,16.51,161.29,0,0,11.51,14.71,33.24,3.26-6.54-40.59-20.86-101.21-17.18-164.65s38.87-179.93,48.94-228.09c8.93-42.73,12.64-82.36-23.09-108.61Z"/>
      <path class="cls-3" d="m75.59,1377.3c-10.6,0-18.11-5.36-21.35-9.5-.5-.64-.83-1.38-.98-2.18-.18-.97-17.74-97.41-16.59-162.28,1.08-61.34,23.97-150.9,39.11-210.17,3.32-12.99,6.18-24.2,8.41-33.51,7.92-33.09-.49-40.35-7.91-46.76-3.8-3.28-8.12-7.01-9.24-13.44-2.14-12.21,6.26-30.22,17.27-37.05,6.36-3.95,13.2-3.87,18.75.21,39.02,28.67,33.76,71.87,25.02,113.66-3.03,14.47-8.23,34.79-14.26,58.32-14.27,55.69-32.03,125-34.58,169.03-2.97,51.16,5.81,99.93,12.87,139.12,1.57,8.7,3.05,16.92,4.26,24.44.34,2.12-.71,4.22-2.61,5.22-6.73,3.54-12.83,4.9-18.15,4.9Zm-12.75-14.87c2.37,2.35,9.94,8.12,23.03,2.65-1.07-6.41-2.32-13.32-3.62-20.56-7.15-39.71-16.05-89.13-13.01-141.47,2.61-45,20.5-114.82,34.88-170.93,6-23.41,11.18-43.63,14.16-57.89,10.1-48.32,9.88-80.76-21.15-103.55-1.53-1.12-3.77-2.11-7.56.23-7.62,4.73-14.15,18.52-12.69,26.83.49,2.79,2.37,4.53,5.93,7.6,8.63,7.45,20.44,17.65,11.1,56.66-2.25,9.39-5.12,20.63-8.45,33.66-15.03,58.82-37.73,147.7-38.8,207.87-1.05,59.66,14.04,146.89,16.18,158.91Z"/>
    </g>
    <g>
      <path id="Beardo" class="cls-13" d="m269.22,468.67c-22.14,143.55-132.72,199.38-157.52,238.05-5.37,33.77,28.19,52.59,28.19,52.59,0,0-32.87,63.03,42.93,89.86,16.92-3.35,34.81-20.35,34.81-20.35,0,0,2.84,60.37,23.6,71.11s49.82,1.34,66.14-17.44c46.96,34.66,124.32,4.92,124.32,4.92,0,0,24.15,29.62,69.32,17.04,14.09-8.77,23.25-28.45,23.25-28.45,0,0,54.11-13.49,75.28-2.16,5.07-3.43,5.07-18.63,5.07-18.63,0,0,22.81-18.04,48.3-22.51,25.49-4.47,46.36,2.68,46.36,2.68,0,0,4.62,21.91,8.5,24.6,3.88,2.68,62.46-24,105.84-5.66,18.78,30.63,43.83,32.12,43.83,32.12,0,0,38.01-1.93,44.94-30.55,51.2,12.47,88.32-14.09,111.13-48.52,25.04,12.52,51.43,2.68,51.43,2.68,0,0,38.46-49.19-2.68-113.59,40.7-28.62,25.04-62.16,25.04-62.16,0,0-64.84-12.07-105.09-63.95-40.25-51.88-38.46-130.92-70.62-164.46,21.06,102.86-14.49,209.63-42.14,250.32-12.45,0-22.74-7.6-22.74-7.6,0,0,.45,22.36-16.99,32.65-17.44,10.29-31.53-21.35-69.43-36.22-8.16,19.12,6.71,39.69,12.63,56.8,25.71,6.04,28.2,34.05,21.24,48.75-9.47,19.98-49.72,30.08-67.83-11.28-39.13,44.94-56.05,48.4-92.72,54.89-36.67,6.48-94.6-21.02-94.6-21.02,0,0-34.74,40.44-65.05-.89-27.06-36.89,24.16-57.16,27.95-59.7,10.51-7.04,15.65-38.01,11.63-57.24-23.25,3.37-39.13,26.61-63.28,31.08s-58.14-39.8-58.14-39.8c0,0-14.98,6.07-18.34,12.09-31.3-7.84-80.09-48.92-94.18-104.44-12.48-49.19-10.38-85.56-10.38-85.56"/>
      <path class="cls-3" d="m479.02,912.6c-26.3,0-42.79-13.48-48.74-19.37-15.09,5.2-78.59,24.39-122.21-4.16-19.05,19.15-48.6,25.93-69.15,15.3-17.91-9.26-23.74-46.87-25.55-65.44-7.18,5.54-18.43,12.93-29.58,15.14l-1.35.27-1.29-.46c-25.4-8.99-41.98-22.94-49.26-41.46-8.41-21.38-1.87-42.47,1.68-51.23-9.3-6.47-31.56-25.35-26.81-55.25l.16-1.03.56-.88c6.94-10.83,19.54-22.27,35.5-36.77,41.93-38.1,105.31-95.67,121.29-199.35l9.93,1.05h0c-.03.5-1.86,36.37,10.24,84.05,13.34,52.58,58.24,90.84,87.5,99.96,5.59-5.67,15.95-10.07,18.29-11.02l3.52-1.43,2.32,3.02c8.94,11.64,35.94,41.14,53.26,37.93,10.91-2.02,20.07-8.31,29.76-14.96,10.23-7.02,20.82-14.29,33.71-16.15l4.65-.67.96,4.6c3.93,18.79-.1,53.28-13.74,62.42-.63.42-1.51.87-2.96,1.6-6.55,3.31-26.47,13.38-30.06,28.35-1.68,7.02.45,14.63,6.32,22.64,7.79,10.62,16.45,16.19,25.75,16.55,17.05.66,31.34-15.79,31.48-15.95l2.49-2.9,3.45,1.64c.57.27,56.93,26.75,91.59,20.61,35.27-6.24,51.36-9.08,89.82-53.25l5.18-5.96,3.17,7.23c9.65,22.04,24.51,25.53,32.51,25.65,11.13.12,22.16-5.93,26.22-14.5,3.18-6.7,4.47-18.33-.2-28.03-3.45-7.15-9.39-11.77-17.67-13.71l-2.68-.63-.9-2.6c-1.39-4.02-3.34-8.31-5.4-12.86-6.61-14.59-14.11-31.13-7.11-47.54l1.91-4.46,4.52,1.77c17.74,6.96,30.33,17.31,40.44,25.63,13.08,10.76,18.59,14.5,24.62,10.94,14.64-8.63,14.54-28.06,14.54-28.25l-.14-10.09,8.11,5.98c.07.05,7.74,5.58,17.16,6.49,11.79-18.29,27.27-52.78,37.06-97.79,7.7-35.4,14.44-89.53,2.79-146.41l-3.47-16.96,11.98,12.49c16.46,17.17,24.35,45.12,32.7,74.71,8.91,31.56,18.13,64.2,38.26,90.15,38.64,49.8,101.43,61.98,102.06,62.1l2.53.47,1.09,2.33c.18.39,4.48,9.78,3.18,22.95-1.1,11.26-6.61,27.5-26.09,42.61,19.68,33.06,19.1,61.99,14.98,80.73-4.66,21.21-14.61,34.11-15.03,34.65l-.87,1.11-1.32.49c-1.1.41-26.05,9.47-51.42-1.07-15.04,21.39-43.56,50.39-87.61,50.39-6.9,0-14.19-.71-21.86-2.28-10.32,27.41-46.49,29.58-48.1,29.66h-.27s-.27,0-.27,0c-1.11-.07-27.1-1.95-46.92-33.09-30.29-11.96-69.31-1.27-88.21,3.91-10.88,2.98-14.16,3.88-17.09,1.85-3.42-2.37-6.75-10.69-9.9-24.74-6.17-1.62-22.48-5.02-41.24-1.73-19.9,3.49-38.44,15.96-44.22,20.13-.25,5.72-1.5,16.36-7.21,20.22l-2.5,1.69-2.66-1.42c-15.2-8.14-53.36-1.69-69.49,2.07-2.96,5.66-11.62,20.64-24.04,28.38l-.61.38-.69.19c-8.47,2.36-16.25,3.33-23.32,3.33Zm-45.75-31.16l2.29,2.8c.9,1.08,22.57,26.58,63.39,15.58,12.3-8.05,20.69-25.76,20.78-25.94l1.01-2.16,2.31-.58c2.16-.54,50.4-12.38,74.8-3.51.98-2.84,1.76-7.93,1.76-12.43v-2.42l1.9-1.5c.97-.77,24.1-18.88,50.54-23.51,26.45-4.64,47.94,2.57,48.85,2.88l2.68.92.59,2.78c1.82,8.62,4.38,17.23,6.05,20.6,2.13-.44,5.81-1.44,9.15-2.36,20.29-5.56,62.51-17.12,96.19-2.88l1.48.62.84,1.37c16.22,26.45,36.84,29.43,39.61,29.72,3.38-.27,34.38-3.35,40.04-26.71l1.18-4.87,4.86,1.18c56.21,13.69,90.4-23.21,105.78-46.42l2.44-3.69,3.96,1.98c19.73,9.87,40.62,4.59,46.08,2.92,2.34-3.42,9.05-14.22,12.42-29.94,5.47-25.52.02-51.33-16.2-76.72l-2.58-4.03,3.91-2.75c31.2-21.94,26.58-46.31,24.21-53.74-13.19-2.99-68.68-17.97-105.33-65.21-21.33-27.49-31.24-62.59-39.98-93.56-5.43-19.24-10.66-37.76-18.06-52.48,12.1,94.39-18.57,190.36-46.63,231.65l-1.49,2.19h-2.65c-7.28,0-13.85-2.25-18.52-4.45-1.51,8.42-5.92,21.27-18.67,28.79-3.25,1.92-6.39,2.75-9.47,2.75-8.87,0-17.26-6.9-26.59-14.58-8.57-7.05-19.01-15.65-32.79-21.95-2.2,11.07,3.23,23.05,8.5,34.69,1.75,3.87,3.43,7.56,4.82,11.2,9.88,3,17.36,9.32,21.73,18.39,6.13,12.72,4.53,27.57.23,36.65-5.75,12.13-20.33,20.4-35.41,20.22-15.55-.23-29.13-9.17-38.08-24.8-35.82,39.87-53.36,44.36-90.7,50.97-33.12,5.85-81.25-14.1-94.32-19.92-5.65,5.54-19.76,17.29-36.81,16.66-12.5-.48-23.74-7.42-33.43-20.62-7.69-10.49-10.37-20.88-7.98-30.88,4.66-19.48,26.9-30.72,35.27-34.95.8-.4,1.7-.86,1.95-1.01,7.29-4.88,12.29-29.2,10.26-47.07-8.62,2.45-16.45,7.83-24.66,13.46-10.13,6.95-20.6,14.14-33.6,16.55-1.45.27-2.93.4-4.42.4-22.35,0-47.83-28.79-56.15-38.99-5.55,2.62-11.18,6.11-12.45,8.39l-1.86,3.35-3.72-.93c-17.31-4.33-38.2-17.67-55.9-35.69-14.48-14.74-33.51-39.26-41.91-72.37-4.65-18.33-7.31-34.84-8.81-48.43-24.03,83.86-78.57,133.41-116.23,167.63-14.35,13.04-26.8,24.35-33.22,33.89-3.91,29.2,24.63,45.71,25.86,46.41l4.21,2.38-2.23,4.29c-.12.23-12.23,24.14-3.09,47.22,6.07,15.35,20.18,27.16,41.93,35.13,14.91-3.63,30.87-18.63,31.03-18.78l7.92-7.5.52,10.89c1.06,22.23,7.66,60.06,20.9,66.9,17.47,9.04,44.42,1.73,60.07-16.28l3.03-3.49,3.71,2.74c44.17,32.6,118.81,4.56,119.56,4.27l3.38-1.29Zm-164.06-412.77h0,0Z"/>
    </g>
    <g>
      <path id="Hair" class="cls-13" d="m606.85,159.89c17.72-12.47,53.73-98.24-26.65-116.64,8.72,38.77-24.8,40.85-24.8,40.85,0,0-6.98-15.28-22.68-15.59-28.04,14.35-52.84,54.58-18.09,86.56,41.62-9.36,49.35,15.42,92.22,4.82Z"/>
      <path class="cls-3" d="m586.42,167.6c-11.2,0-19.81-2.55-28.24-5.05-11.97-3.55-23.28-6.9-42.45-2.59-1.6.36-3.28-.09-4.48-1.2-17.89-16.47-19.76-33.75-18.18-45.35,3.06-22.44,20.98-40.95,37.38-49.34.73-.38,1.55-.57,2.38-.55,13.76.27,21.8,9.83,25.21,15.11,3.73-.84,10.17-3.04,14.33-8.64,4.45-5.98,5.44-14.61,2.96-25.64-.38-1.68.13-3.43,1.35-4.64,1.22-1.21,2.97-1.72,4.64-1.33,37.48,8.58,49.39,30.95,52.79,48.21,6.35,32.3-12.44,68.98-24.38,77.39-.51.36-1.08.62-1.68.76-8.3,2.05-15.37,2.85-21.63,2.85Zm-53.63-19.69c11.2,0,19.81,2.55,28.23,5.05,12.21,3.62,23.75,7.04,43.64,2.32,8.93-7.31,25.09-39.02,19.64-66.76-3.7-18.83-16.44-31.73-37.91-38.43,1.05,10.47-.99,19.18-6.08,25.97-8.96,11.94-23.96,13-24.6,13.04-2.07.13-4-1.03-4.86-2.91-.22-.47-5.58-11.64-17.02-12.61-13.76,7.46-28.36,22.83-30.87,41.18-1.73,12.72,2.71,24.44,13.2,34.88,6.18-1.23,11.65-1.73,16.61-1.73Z"/>
    </g>
  </g>
</svg>